<?xml version="1.0" encoding="utf-8"?>
<!-- Generator: Adobe Illustrator 24.0.0, SVG Export Plug-In . SVG Version: 6.00 Build 0)  -->
<svg version="1.1" id="rond" xmlns="http://www.w3.org/2000/svg" xmlns:xlink="http://www.w3.org/1999/xlink" x="0px" y="0px"
	 viewBox="0 0 57.2 78.4" style="enable-background:new 0 0 57.2 78.4;" xml:space="preserve">
<style type="text/css">
	.st0{fill:#BC4254;}
	.st1{fill:#FFFFFF;}
</style>
<g>
	<path class="st0" d="M28.5,74.7c-7.9-6.2-14.4-14-18.9-22.7c-2.5-4.9-4.5-10.2-5.7-15.6l0-0.1c-0.1-0.3-0.1-0.5-0.2-0.8
		c-1.9-7.3,0.1-15.6,5.2-22.2C13.9,6.8,21,3,28.4,3l0.1,0c6.5,0,13,2.8,17.9,7.7c4.9,4.9,7.5,11.2,7.5,17.9c0,0.9,0,1.7-0.1,2.6
		l0,0.3l0,0.1c-0.1,0.6-0.2,1.2-0.3,1.7c-1.1,6.5-3.2,12.8-6.2,18.6C42.9,60.8,36.4,68.6,28.5,74.7z M28.6,15.7
		c-5.8,0-10.5,4.7-10.5,10.5s4.7,10.5,10.5,10.5S39.1,32,39.1,26.2S34.4,15.7,28.6,15.7z"/>
	<path class="st1" d="M28.6,5.5c5.7,0,11.4,2.4,15.8,6.6c4.6,4.4,7.1,10.3,7.1,16.5c0,0.8,0,1.6-0.1,2.3l0,0.3l0,0.1l0,0.1l0,0.1
		c-0.1,0.5-0.1,1-0.2,1.5l0,0.1l0,0.1C50,39.3,48,45.3,45.1,50.9c-4,7.8-9.7,14.9-16.6,20.6c-6.9-5.7-12.6-12.8-16.6-20.6
		c-2.4-4.8-4.3-9.8-5.5-15l0-0.1l0-0.1c-0.1-0.2-0.1-0.5-0.2-0.7c-1.7-6.6,0.1-14,4.7-20.1c4.5-5.9,11-9.3,17.6-9.3L28.6,5.5
		 M28.6,39.2c7.2,0,13-5.8,13-13s-5.8-13-13-13c-7.2,0-13,5.8-13,13S21.4,39.2,28.6,39.2 M28.6,0.5c-0.1,0-0.1,0-0.2,0
		C10.7,0.6-3,19.5,1.3,36.1c0.1,0.3,0.2,0.6,0.2,0.9c1.1,4.7,2.9,10.3,5.9,16.2C14,65.9,23,73.7,28.4,77.7c0,0,0,0,0.1,0
		c0,0,0,0,0,0c0,0,0.1,0,0.1-0.1c5.3-3.9,14.4-11.7,21-24.6c3.7-7.3,5.5-14.1,6.4-19.3c0.1-0.6,0.2-1.2,0.3-1.9
		c0-0.2,0.1-0.4,0.1-0.6l0,0c0.1-0.9,0.1-1.9,0.1-2.8C56.5,12.6,42.8,0.5,28.6,0.5L28.6,0.5z M28.6,34.2c-4.4,0-8-3.6-8-8
		c0-4.4,3.6-8,8-8c4.4,0,8,3.6,8,8C36.6,30.6,33,34.2,28.6,34.2L28.6,34.2z"/>
</g>
</svg>
