<?xml version="1.0" encoding="utf-8"?>
<!-- Generator: Adobe Illustrator 24.0.0, SVG Export Plug-In . SVG Version: 6.00 Build 0)  -->
<svg version="1.1" id="rond" xmlns="http://www.w3.org/2000/svg" xmlns:xlink="http://www.w3.org/1999/xlink" x="0px" y="0px"
	 viewBox="0 0 57.2 78.4" style="enable-background:new 0 0 57.2 78.4;" xml:space="preserve">
<style type="text/css">
	.st0{fill:#BC4254;}
	.st1{fill:#FFFFFF;}
</style>
<g>
	<path class="st0" d="M28.5,75.9c-8.2-6.3-15.1-14.4-19.7-23.5c-2.6-5-4.5-10.3-5.8-15.8c-0.1-0.3-0.2-0.6-0.2-0.9
		c-1.9-7.6,0.1-16.2,5.4-23.1C13.3,5.9,20.7,2,28.4,2l0.1,0c6.8,0,13.5,2.9,18.6,8c5,5,7.8,11.7,7.8,18.6c0,0.9,0,1.8-0.1,2.7l0,0.3
		l0,0.2c-0.1,0.6-0.2,1.2-0.3,1.8c-1.1,6.6-3.2,13-6.3,18.9C43.6,61.6,36.8,69.7,28.5,75.9z M28.6,16.7c-5.2,0-9.5,4.3-9.5,9.5
		s4.3,9.5,9.5,9.5s9.5-4.3,9.5-9.5S33.8,16.7,28.6,16.7z"/>
	<path class="st1" d="M28.6,3.5c6.2,0,12.5,2.6,17.2,7.2c5,4.8,7.7,11.2,7.7,17.9c0,0.8,0,1.7-0.1,2.5l0,0.3l0,0.1l0,0l0,0
		c-0.1,0.6-0.2,1.1-0.3,1.7l0,0l0,0c-1.1,6.4-3.2,12.6-6.1,18.4C42.6,60.3,36.2,68,28.5,74c-7.7-6.1-14-13.7-18.4-22.3
		c-2.5-4.9-4.4-10.1-5.7-15.5l0-0.1l0-0.1c-0.1-0.2-0.1-0.5-0.2-0.8c-1.8-7.1,0.1-15.3,5.1-21.8c4.9-6.4,11.9-10,19.2-10.1L28.6,3.5
		 M28.6,37.2c6.1,0,11-4.9,11-11c0-6.1-4.9-11-11-11s-11,4.9-11,11C17.6,32.2,22.5,37.2,28.6,37.2 M28.6,0.5c-0.1,0-0.1,0-0.2,0
		C10.7,0.6-3,19.5,1.3,36.1c0.1,0.3,0.2,0.6,0.2,0.9c1.1,4.7,2.9,10.3,5.9,16.2C14,65.9,23,73.7,28.4,77.7c0,0,0,0,0.1,0
		c0,0,0,0,0,0c0,0,0.1,0,0.1-0.1c5.3-3.9,14.4-11.7,21-24.6c3.7-7.3,5.5-14.1,6.4-19.3c0.1-0.6,0.2-1.2,0.3-1.9
		c0-0.2,0.1-0.4,0.1-0.6l0,0c0.1-0.9,0.1-1.9,0.1-2.8C56.5,12.6,42.8,0.5,28.6,0.5L28.6,0.5z M28.6,34.2c-4.4,0-8-3.6-8-8
		c0-4.4,3.6-8,8-8c4.4,0,8,3.6,8,8C36.6,30.6,33,34.2,28.6,34.2L28.6,34.2z"/>
</g>
</svg>
